<?xml version="1.0" standalone="no"?>
<!DOCTYPE svg PUBLIC "-//W3C//DTD SVG 20010904//EN"
 "http://www.w3.org/TR/2001/REC-SVG-20010904/DTD/svg10.dtd">
<svg version="1.0" xmlns="http://www.w3.org/2000/svg"
 width="630.000000pt" height="630.000000pt" viewBox="0 0 630.000000 630.000000"
 preserveAspectRatio="xMidYMid meet">
<metadata>
Created by potrace 1.14, written by Peter Selinger 2001-2017
</metadata>
<g transform="translate(0.000000,630.000000) scale(0.100000,-0.100000)"
fill="#000000" stroke="none">
<path d="M3201 4619 c-24 -11 -52 -29 -62 -41 -15 -16 -22 -18 -33 -9 -18 15
-94 17 -109 2 -8 -8 -5 -16 8 -31 18 -19 18 -20 -1 -20 -38 0 -141 -58 -192
-109 -86 -85 -123 -178 -147 -372 -18 -142 -45 -232 -85 -288 -33 -45 -32 -61
3 -61 26 0 87 35 87 50 0 5 3 10 8 10 4 0 8 -29 8 -64 2 -63 33 -156 52 -156
14 0 42 75 42 112 l0 32 43 -46 c51 -56 92 -84 102 -68 4 6 -1 22 -9 35 -19
29 -11 33 17 8 12 -12 37 -18 68 -19 81 -2 89 -4 89 -14 0 -5 -22 -16 -49 -24
-93 -27 -168 -91 -276 -234 -54 -72 -70 -122 -45 -137 28 -17 7 -42 -145 -180
-140 -126 -184 -173 -210 -226 -29 -56 -30 -78 -11 -142 l14 -47 -42 -19 c-57
-25 -90 -62 -110 -123 -34 -107 -15 -173 80 -277 66 -72 214 -190 274 -218 22
-10 40 -20 40 -23 0 -3 -18 -15 -41 -28 -74 -42 -98 -115 -59 -179 44 -73 99
-77 353 -25 113 24 142 33 165 55 34 32 43 33 60 7 14 -22 51 -21 152 5 52 14
57 13 105 -9 118 -56 235 -52 308 12 24 21 22 83 -4 116 -12 15 -20 28 -18 30
2 2 26 16 54 31 223 123 329 282 266 401 -11 21 -26 46 -33 55 -21 26 -89 69
-109 69 -33 0 -21 14 33 40 153 72 248 188 248 300 0 86 -82 269 -186 417 -24
34 -44 69 -44 78 0 45 -252 223 -340 240 -13 2 -28 9 -34 15 -5 5 -34 10 -62
10 -29 0 -56 5 -59 10 -3 6 -3 10 2 11 4 0 28 2 53 5 25 2 52 5 60 7 8 2 32 7
52 11 20 5 44 17 54 27 27 30 37 23 31 -26 -4 -33 -2 -45 7 -45 21 0 94 68
117 109 l22 39 21 -24 c25 -29 88 -43 111 -24 14 12 13 16 -9 39 -44 46 -69
117 -72 211 -2 47 -6 102 -9 123 -3 22 -8 64 -11 95 -19 176 -119 299 -320
393 -63 30 -102 42 -154 46 l-69 6 16 23 c15 24 11 45 -10 43 -7 0 -32 -9 -56
-20z m-301 -1685 c0 -8 -5 -12 -10 -9 -6 4 -8 11 -5 16 9 14 15 11 15 -7z
m864 -61 c60 -96 61 -98 21 -123 -70 -43 -71 -41 -74 81 -1 60 1 109 4 109 3
0 25 -30 49 -67z"/>
<path d="M5056 2021 c-3 -5 1 -11 9 -14 9 -4 12 -1 8 9 -6 16 -10 17 -17 5z"/>
<path d="M5247 2011 c-3 -13 -1 -18 9 -14 7 2 10 11 7 19 -7 19 -10 18 -16 -5z"/>
<path d="M5369 2028 c0 -2 -2 -17 -3 -34 -2 -25 1 -31 13 -26 11 4 11 7 3 10
-10 3 -10 7 -1 18 9 11 9 14 0 14 -7 0 -9 5 -6 10 3 6 4 10 1 10 -3 0 -6 -1
-7 -2z"/>
<path d="M4817 1997 c-7 -18 -8 -27 -2 -27 3 0 5 3 4 6 0 4 5 10 11 14 8 5 8
10 2 14 -5 3 -12 0 -15 -7z"/>
<path d="M4851 1978 c-1 -9 -10 -20 -22 -23 -14 -5 -17 -10 -10 -18 5 -7 10
-16 11 -22 1 -5 3 -12 6 -14 2 -2 1 7 -1 19 -3 14 2 28 12 35 9 6 13 18 10 26
-4 11 -6 10 -6 -3z"/>
<path d="M4950 1980 c0 -5 5 -10 11 -10 5 0 7 5 4 10 -3 6 -8 10 -11 10 -2 0
-4 -4 -4 -10z"/>
<path d="M5162 1974 c-15 -16 -36 -19 -27 -4 3 6 -1 7 -10 3 -13 -4 -14 -8 -4
-14 10 -6 10 -11 -2 -26 -8 -10 1 -5 20 10 18 15 39 26 45 24 6 -2 11 -25 10
-55 0 -29 4 -52 9 -52 5 0 7 6 4 14 -3 7 0 19 6 26 9 10 9 11 0 6 -9 -5 -11 3
-8 26 5 40 -21 65 -43 42z"/>
<path d="M5254 1979 c-3 -6 -1 -16 4 -21 8 -8 11 -5 9 11 -1 24 -3 25 -13 10z"/>
<path d="M5314 1976 c-10 -8 -17 -16 -14 -19 3 -2 14 4 24 14 23 22 18 25 -10
5z"/>
<path d="M5525 1980 c-4 -6 -10 -8 -15 -5 -5 3 -11 1 -14 -4 -4 -5 -2 -12 3
-15 5 -4 12 -2 16 4 4 7 12 7 25 0 13 -7 21 -7 25 0 4 6 3 10 -2 9 -20 -3 -34
2 -28 11 3 6 4 10 1 10 -3 0 -8 -5 -11 -10z"/>
<path d="M5630 1979 c-12 -9 -12 -10 3 -5 11 3 20 0 23 -9 7 -18 34 -20 34 -3
0 6 -3 8 -7 5 -3 -4 -14 -1 -22 7 -12 11 -21 12 -31 5z"/>
<path d="M5726 1982 c-3 -5 1 -9 9 -9 8 0 12 4 9 9 -3 4 -7 8 -9 8 -2 0 -6 -4
-9 -8z"/>
<path d="M5766 1974 c-3 -8 -1 -12 4 -9 5 3 18 1 29 -5 14 -7 22 -7 27 1 4 8
9 7 15 -2 7 -11 9 -11 9 -1 0 7 5 10 12 6 7 -4 8 -3 4 5 -4 6 -12 9 -17 6 -5
-4 -9 0 -9 7 0 8 -5 6 -11 -5 -10 -17 -13 -17 -34 -3 -21 14 -24 14 -29 0z"/>
<path d="M4890 1960 c5 -10 8 -19 7 -21 -1 -2 0 -3 2 -1 11 6 6 39 -5 39 -9 0
-10 -5 -4 -17z"/>
<path d="M5003 1968 c-4 -7 -8 -21 -8 -31 0 -10 -7 -22 -15 -27 -8 -5 -11 -10
-6 -10 5 0 3 -6 -3 -14 -15 -18 5 -34 22 -17 9 9 8 11 -6 5 -17 -6 -18 -5 -6
14 7 11 16 19 20 16 4 -2 6 4 4 13 -1 10 0 23 4 28 7 12 11 35 6 35 -2 0 -7
-6 -12 -12z"/>
<path d="M5056 1971 c-4 -5 -1 -13 5 -17 8 -4 7 -9 -2 -15 -8 -5 -9 -9 -4 -9
6 0 17 5 25 10 11 7 11 10 2 10 -7 0 -11 4 -7 9 3 5 1 12 -4 15 -5 4 -12 2
-15 -3z"/>
<path d="M5601 1963 c-1 -17 16 -25 25 -12 4 7 3 9 -4 5 -5 -3 -13 0 -15 6 -4
9 -6 10 -6 1z"/>
<path d="M4937 1944 c6 -16 33 -27 33 -14 0 6 -6 10 -12 10 -9 0 -8 3 2 10 12
7 10 9 -7 8 -12 -1 -19 -7 -16 -14z"/>
<path d="M5275 1943 c-3 -10 -1 -19 4 -21 6 -2 9 -8 5 -13 -3 -5 0 -8 8 -7 7
2 12 -3 10 -11 -3 -14 15 -31 33 -31 6 1 2 5 -8 11 -9 6 -15 14 -12 18 2 5 -4
16 -15 26 -10 9 -16 23 -13 31 3 8 3 14 0 14 -3 0 -8 -8 -12 -17z"/>
<path d="M5730 1945 c0 -8 4 -15 8 -15 5 0 9 7 9 15 0 8 -4 15 -9 15 -4 0 -8
-7 -8 -15z"/>
<path d="M5366 1941 c-3 -5 0 -11 7 -14 8 -3 14 1 14 9 0 16 -13 19 -21 5z"/>
<path d="M5478 1938 c16 -16 15 -31 0 -22 -10 6 -10 5 -1 -8 7 -8 9 -19 5 -23
-4 -5 -1 -5 6 -1 7 4 14 1 18 -7 4 -12 20 -14 57 -8 4 0 7 6 7 12 0 8 -5 8
-15 -1 -12 -10 -20 -9 -40 4 -14 9 -23 21 -20 26 7 12 -5 40 -18 40 -7 0 -7
-4 1 -12z"/>
<path d="M5786 1942 c-3 -4 4 -9 15 -9 23 -2 25 3 4 10 -8 4 -16 3 -19 -1z"/>
<path d="M5859 1948 c-6 -14 -3 -68 4 -68 4 0 5 -6 1 -12 -4 -7 -3 -10 1 -5
12 10 14 47 3 47 -11 0 -6 23 7 32 6 5 5 8 -2 8 -7 0 -13 -1 -14 -2z"/>
<path d="M5593 1925 c0 -8 3 -13 5 -10 3 3 11 -3 19 -13 13 -15 13 -15 3 5
-13 28 -27 37 -27 18z"/>
<path d="M5680 1930 c12 -8 13 -11 1 -19 -8 -5 -9 -11 -3 -15 11 -7 25 21 16
35 -3 5 -11 9 -17 9 -7 0 -6 -4 3 -10z"/>
<path d="M4905 1921 c-3 -5 -1 -12 4 -16 6 -3 8 -12 5 -19 -3 -8 1 -17 8 -22
7 -4 10 -3 5 1 -4 5 0 19 8 32 9 13 11 23 5 23 -5 0 -10 -5 -10 -11 0 -5 -5
-7 -10 -4 -6 4 -8 11 -5 16 4 5 4 9 1 9 -3 0 -7 -4 -11 -9z"/>
<path d="M5061 1901 c-8 -14 -7 -22 4 -31 9 -7 18 -10 22 -6 3 3 2 6 -3 6 -5
0 -10 9 -11 20 -1 13 2 18 9 14 7 -4 8 -2 4 4 -10 16 -14 15 -25 -7z"/>
<path d="M5125 1910 c-3 -5 -3 -10 2 -10 4 0 2 -4 -5 -9 -10 -6 -9 -11 4 -22
13 -10 16 -10 10 -1 -4 7 -3 19 4 27 7 8 7 15 1 19 -5 4 -12 2 -16 -4z"/>
<path d="M5249 1901 c7 -12 6 -22 -2 -30 -9 -10 -8 -11 5 -6 19 8 20 42 1 50
-10 3 -11 0 -4 -14z"/>
<path d="M5363 1907 c0 -8 6 -14 14 -14 9 0 10 4 2 14 -6 7 -12 13 -14 13 -1
0 -2 -6 -2 -13z"/>
<path d="M5730 1913 c5 -2 8 -9 4 -14 -3 -5 0 -9 6 -9 15 0 7 23 -8 26 -7 1
-8 0 -2 -3z"/>
<path d="M5792 1903 c1 -10 -1 -23 -4 -29 -4 -6 -2 -11 5 -11 7 0 13 13 12 29
0 15 -4 28 -8 28 -5 0 -7 -8 -5 -17z"/>
<path d="M4815 1887 c4 -8 15 -17 25 -20 13 -3 17 -1 13 10 -3 7 -8 11 -11 9
-3 -3 -11 -1 -19 6 -11 8 -12 7 -8 -5z"/>
<path d="M5425 1881 c-6 -11 9 -23 19 -14 9 9 7 23 -3 23 -6 0 -12 -4 -16 -9z"/>
<path d="M5614 1876 c23 -18 32 -20 41 -6 3 5 13 6 23 3 9 -3 14 -3 11 1 -10
11 -50 16 -44 5 8 -12 -1 -12 -28 2 -21 10 -21 10 -3 -5z"/>
<path d="M5726 1868 c3 -5 10 -6 15 -3 13 9 11 12 -6 12 -8 0 -12 -4 -9 -9z"/>
</g>
</svg>
